HIERARCHY
ROOT Hips
{
	OFFSET 0.000000 97.167313 0.000000
	CHANNELS 6 Xposition Yposition Zposition Xrotation Yrotation Zrotation
	JOINT Spine
	{
		OFFSET 0.000000 13.784798 0.064400
		CHANNELS 3 Xrotation Yrotation Zrotation
		JOINT Spine1
		{
			OFFSET 0.000000 12.037903 0.404700
			CHANNELS 3 Xrotation Yrotation Zrotation
			JOINT Spine2
			{
				OFFSET 0.000000 17.795601 0.420200
				CHANNELS 3 Xrotation Yrotation Zrotation
				JOINT Neck
				{
					OFFSET 0.000000 39.131302 11.954600
					CHANNELS 3 Xrotation Yrotation Zrotation
					JOINT Head
					{
						OFFSET 0.000000 14.456192 15.627699
						CHANNELS 3 Xrotation Yrotation Zrotation
						JOINT HeadTop_End
						{
							OFFSET 0.000000 15.703506 7.603401
							CHANNELS 3 Xrotation Yrotation Zrotation
							End Site
							{
								OFFSET 0.000000 17.447403 0.000000
							}
						}
					}
				}
				JOINT LeftShoulder
				{
					OFFSET 17.399500 24.608795 1.168800
					CHANNELS 3 Xrotation Yrotation Zrotation
					JOINT LeftArm
					{
						OFFSET 18.980635 5.765305 1.818600
						CHANNELS 3 Xrotation Yrotation Zrotation
						JOINT LeftForeArm
						{
							OFFSET 49.290169 0.000000 0.000000
							CHANNELS 3 Xrotation Yrotation Zrotation
							JOINT LeftHand
							{
								OFFSET 31.562012 0.000000 0.000000
								CHANNELS 3 Xrotation Yrotation Zrotation
								JOINT LeftHandThumb1
								{
									OFFSET 6.133995 -4.388519 7.076070
									CHANNELS 3 Xrotation Yrotation Zrotation
									JOINT LeftHandThumb2
									{
										OFFSET 6.037666 -3.485840 3.485847
										CHANNELS 3 Xrotation Yrotation Zrotation
										JOINT LeftHandThumb3
										{
											OFFSET 6.496506 -3.750763 3.750761
											CHANNELS 3 Xrotation Yrotation Zrotation
											JOINT LeftHandThumb4
											{
												OFFSET 5.616882 -3.242905 3.242910
												CHANNELS 3 Xrotation Yrotation Zrotation
												End Site
												{
													OFFSET -1.254608 7.132141 0.375429
												}
											}
										}
									}
								}
								JOINT LeftHandPinky1
								{
									OFFSET 18.920792 -0.453171 -11.426712
									CHANNELS 3 Xrotation Yrotation Zrotation
									JOINT LeftHandPinky2
									{
										OFFSET 4.919586 0.000000 0.000000
										CHANNELS 3 Xrotation Yrotation Zrotation
										JOINT LeftHandPinky3
										{
											OFFSET 5.233047 0.000000 0.000000
											CHANNELS 3 Xrotation Yrotation Zrotation
											JOINT LeftHandPinky4
											{
												OFFSET 5.571716 0.000000 0.000000
												CHANNELS 3 Xrotation Yrotation Zrotation
												End Site
												{
													OFFSET -3.459808 4.342407 -0.466164
												}
											}
										}
									}
								}
								JOINT LeftHandRing1
								{
									OFFSET 22.726120 -0.094986 -6.500475
									CHANNELS 3 Xrotation Yrotation Zrotation
									JOINT LeftHandRing2
									{
										OFFSET 6.408615 0.000000 0.000000
										CHANNELS 3 Xrotation Yrotation Zrotation
										JOINT LeftHandRing3
										{
											OFFSET 6.150223 0.000000 0.000000
											CHANNELS 3 Xrotation Yrotation Zrotation
											JOINT LeftHandRing4
											{
												OFFSET 6.145386 0.000000 0.000000
												CHANNELS 3 Xrotation Yrotation Zrotation
												End Site
												{
													OFFSET -3.671402 4.923981 -0.202372
												}
											}
										}
									}
								}
								JOINT LeftHandMiddle1
								{
									OFFSET 23.373947 0.000000 0.000001
									CHANNELS 3 Xrotation Yrotation Zrotation
									JOINT LeftHandMiddle2
									{
										OFFSET 6.996567 0.000000 0.000000
										CHANNELS 3 Xrotation Yrotation Zrotation
										JOINT LeftHandMiddle3
										{
											OFFSET 7.015945 0.000000 0.000000
											CHANNELS 3 Xrotation Yrotation Zrotation
											JOINT LeftHandMiddle4
											{
												OFFSET 7.721573 0.000000 0.000000
												CHANNELS 3 Xrotation Yrotation Zrotation
												End Site
												{
													OFFSET -4.651108 6.158463 0.251582
												}
											}
										}
									}
								}
								JOINT LeftHandIndex1
								{
									OFFSET 21.310577 -0.490082 6.209344
									CHANNELS 3 Xrotation Yrotation Zrotation
									JOINT LeftHandIndex2
									{
										OFFSET 7.536453 0.000000 0.000000
										CHANNELS 3 Xrotation Yrotation Zrotation
										JOINT LeftHandIndex3
										{
											OFFSET 7.512344 0.000000 0.000000
											CHANNELS 3 Xrotation Yrotation Zrotation
											JOINT LeftHandIndex4
											{
												OFFSET 10.212402 0.000000 0.000001
												CHANNELS 3 Xrotation Yrotation Zrotation
												End Site
												{
													OFFSET -5.180801 8.690506 1.388433
												}
											}
										}
									}
								}
							}
						}
					}
				}
				JOINT RightShoulder
				{
					OFFSET -17.399500 24.608795 1.168800
					CHANNELS 3 Xrotation Yrotation Zrotation
					JOINT RightArm
					{
						OFFSET -18.980635 5.765305 1.818600
						CHANNELS 3 Xrotation Yrotation Zrotation
						JOINT RightForeArm
						{
							OFFSET -49.290169 0.000000 0.000000
							CHANNELS 3 Xrotation Yrotation Zrotation
							JOINT RightHand
							{
								OFFSET -31.562012 0.000000 0.000000
								CHANNELS 3 Xrotation Yrotation Zrotation
								JOINT RightHandThumb1
								{
									OFFSET -6.133995 -4.388519 7.076070
									CHANNELS 3 Xrotation Yrotation Zrotation
									JOINT RightHandThumb2
									{
										OFFSET -6.037666 -3.485840 3.485847
										CHANNELS 3 Xrotation Yrotation Zrotation
										JOINT RightHandThumb3
										{
											OFFSET -6.496506 -3.750763 3.750761
											CHANNELS 3 Xrotation Yrotation Zrotation
											JOINT RightHandThumb4
											{
												OFFSET -5.616882 -3.242905 3.242910
												CHANNELS 3 Xrotation Yrotation Zrotation
												End Site
												{
													OFFSET 1.254608 7.132141 0.375429
												}
											}
										}
									}
								}
								JOINT RightHandIndex1
								{
									OFFSET -21.310577 -0.490082 6.209344
									CHANNELS 3 Xrotation Yrotation Zrotation
									JOINT RightHandIndex2
									{
										OFFSET -7.536453 0.000000 0.000000
										CHANNELS 3 Xrotation Yrotation Zrotation
										JOINT RightHandIndex3
										{
											OFFSET -7.512344 0.000000 0.000000
											CHANNELS 3 Xrotation Yrotation Zrotation
											JOINT RightHandIndex4
											{
												OFFSET -10.212402 0.000000 0.000001
												CHANNELS 3 Xrotation Yrotation Zrotation
												End Site
												{
													OFFSET 5.180801 8.690506 1.388433
												}
											}
										}
									}
								}
								JOINT RightHandMiddle1
								{
									OFFSET -23.373947 0.000000 0.000001
									CHANNELS 3 Xrotation Yrotation Zrotation
									JOINT RightHandMiddle2
									{
										OFFSET -6.996567 0.000000 0.000000
										CHANNELS 3 Xrotation Yrotation Zrotation
										JOINT RightHandMiddle3
										{
											OFFSET -7.015945 0.000000 0.000000
											CHANNELS 3 Xrotation Yrotation Zrotation
											JOINT RightHandMiddle4
											{
												OFFSET -7.721573 0.000000 0.000000
												CHANNELS 3 Xrotation Yrotation Zrotation
												End Site
												{
													OFFSET 4.651108 6.158463 0.251582
												}
											}
										}
									}
								}
								JOINT RightHandRing1
								{
									OFFSET -22.726120 -0.094986 -6.500475
									CHANNELS 3 Xrotation Yrotation Zrotation
									JOINT RightHandRing2
									{
										OFFSET -6.408615 0.000000 0.000000
										CHANNELS 3 Xrotation Yrotation Zrotation
										JOINT RightHandRing3
										{
											OFFSET -6.150223 0.000000 0.000000
											CHANNELS 3 Xrotation Yrotation Zrotation
											JOINT RightHandRing4
											{
												OFFSET -6.145386 0.000000 0.000000
												CHANNELS 3 Xrotation Yrotation Zrotation
												End Site
												{
													OFFSET 3.671402 4.923981 -0.202372
												}
											}
										}
									}
								}
								JOINT RightHandPinky1
								{
									OFFSET -18.920792 -0.453171 -11.426712
									CHANNELS 3 Xrotation Yrotation Zrotation
									JOINT RightHandPinky2
									{
										OFFSET -4.919586 0.000000 0.000000
										CHANNELS 3 Xrotation Yrotation Zrotation
										JOINT RightHandPinky3
										{
											OFFSET -5.233047 0.000000 0.000000
											CHANNELS 3 Xrotation Yrotation Zrotation
											JOINT RightHandPinky4
											{
												OFFSET -5.571716 0.000000 0.000000
												CHANNELS 3 Xrotation Yrotation Zrotation
												End Site
												{
													OFFSET 3.459808 4.342407 -0.466164
												}
											}
										}
									}
								}
							}
						}
					}
				}
			}
		}
	}
	JOINT LeftUpLeg
	{
		OFFSET 19.899099 -7.885101 -3.429500
		CHANNELS 3 Xrotation Yrotation Zrotation
		JOINT LeftLeg
		{
			OFFSET 1.745560 -36.997807 10.304700
			CHANNELS 3 Xrotation Yrotation Zrotation
			JOINT LeftFoot
			{
				OFFSET -1.745558 -29.803308 -13.615400
				CHANNELS 3 Xrotation Yrotation Zrotation
				JOINT LeftToeBase
				{
					OFFSET 1.181900 -18.539904 15.226099
					CHANNELS 3 Xrotation Yrotation Zrotation
					JOINT LeftToe_End
					{
						OFFSET -0.863701 1.402801 16.534700
						CHANNELS 3 Xrotation Yrotation Zrotation
						End Site
						{
							OFFSET 0.000000 16.616566 0.000000
						}
					}
				}
			}
		}
	}
	JOINT RightUpLeg
	{
		OFFSET -19.899099 -7.885101 -3.429500
		CHANNELS 3 Xrotation Yrotation Zrotation
		JOINT RightLeg
		{
			OFFSET -1.745560 -36.997807 10.304700
			CHANNELS 3 Xrotation Yrotation Zrotation
			JOINT RightFoot
			{
				OFFSET 1.745558 -29.803308 -13.615400
				CHANNELS 3 Xrotation Yrotation Zrotation
				JOINT RightToeBase
				{
					OFFSET -1.181900 -18.539904 15.226099
					CHANNELS 3 Xrotation Yrotation Zrotation
					JOINT RightToe_End
					{
						OFFSET 0.863701 1.402801 16.534700
						CHANNELS 3 Xrotation Yrotation Zrotation
						End Site
						{
							OFFSET 0.000000 16.616566 0.000000
						}
					}
				}
			}
		}
	}
}
MOTION
Frames: 5
Frame Time: 0.033333
81.166763 66.515533 -67.554535 234.880807 207.459865 -116.642542 39.380791 2.360720 -0.281471 7.125322 0.023213 -0.224691 7.122085 0.042247 -0.246381 -6.741147 0.054315 0.946950 -28.757166 3.368832 -3.564153 0.000001 -0.000001 0.000002 0.253421 -18.093975 -1.979891 -70.931931 -36.489695 -69.505398 -0.000094 -75.783066 -0.000082 -1.705863 -18.729813 12.517999 -92.419658 48.010253 -15.134989 8.386027 -17.793560 40.934618 -17.904405 14.722922 24.764034 -0.000003 -0.000000 0.000003 3.358288 11.978616 -22.736600 0.000012 0.000003 0.000004 0.716733 2.809773 -28.615472 -0.000000 0.000000 -0.000002 0.546505 5.084092 -13.208116 0.113229 1.147444 -11.271217 0.107474 1.118137 -10.979545 -0.000000 0.000002 0.000005 0.149624 0.540123 2.856333 0.121621 1.188773 -11.682792 0.127381 1.216259 -11.956928 -0.000000 -0.000002 0.000008 6.231094 -7.799135 9.840541 0.024847 0.539793 -5.275012 0.136359 1.257943 -12.373319 -0.000000 0.000001 -0.000001 -0.958956 -0.487757 -11.006215 -65.420665 52.139615 50.650996 0.000015 39.072985 -0.000011 5.648935 2.398204 -15.189214 -91.336582 -42.075024 10.831615 -11.745528 -21.062312 -38.386363 -16.883966 -2.579309 -22.106071 0.000002 0.000005 -0.000001 2.991956 6.347806 30.131461 0.581294 -2.254993 28.906508 0.285764 -1.607846 20.155808 -0.000003 0.000002 0.000001 0.102764 -3.747214 33.019856 1.636369 -3.546232 49.530158 1.043183 -2.939349 39.072907 0.000000 0.000002 0.000001 -0.452128 -3.635746 43.704502 1.873575 -3.735218 53.264397 1.271849 -3.200120 43.340890 0.000002 -0.000000 -0.000005 -0.390544 -4.749304 58.562295 1.571235 -3.489711 48.468832 2.414257 -4.082532 61.183100 0.000000 -0.000003 -0.000003 -85.738204 -4.407411 2.477975 55.067423 -0.167293 0.136477 23.896815 -4.239609 -14.047233 -41.008080 1.737051 -10.592457 -0.000000 0.000005 0.000000 -82.286055 -1.547481 -1.077738 77.996478 2.147103 -0.559545 -43.701050 5.565598 -21.151813 -0.348912 0.000021 -0.037670 0.000000 0.000002 -0.000000 
80.494019 65.332962 -65.609596 253.064082 220.534541 -100.670145 41.721306 1.188731 -2.273846 8.587382 0.024462 -0.601311 8.585793 0.046716 -0.625961 -9.199524 0.058285 0.967842 -33.743307 3.011396 -3.270696 -0.000001 0.000001 0.000001 -1.462776 -12.419875 0.330542 -68.011752 -45.838400 -70.391349 -0.000151 -96.824741 -0.000188 4.731938 -11.583711 18.785604 -92.650635 47.947105 -14.365049 7.838311 -17.361740 40.205850 -17.800764 14.284550 24.376448 0.000001 0.000003 -0.000004 3.287473 11.794804 -22.794134 0.000003 0.006297 -0.061420 0.708270 2.794204 -28.442217 -0.000001 0.000003 -0.000000 0.535240 5.032064 -13.254457 0.116356 1.162964 -11.425597 0.109777 1.130009 -11.097790 -0.000001 0.000000 0.000003 0.141415 0.580536 2.621880 0.124504 1.202587 -11.820535 0.129256 1.225071 -12.045012 0.000001 -0.000002 0.000004 6.079556 -7.681133 9.479085 0.026261 0.554352 -5.417701 0.134962 1.251600 -12.309993 -0.000001 -0.000002 -0.000001 -2.671679 -4.214861 -10.252292 -80.824381 56.183060 70.673641 0.000039 47.803039 -0.000034 2.406111 0.948816 -13.587378 -90.744637 -42.207301 10.635414 -15.937312 -26.530239 -40.545786 -16.881671 -0.134115 -21.121515 -0.000000 -0.000006 0.000002 2.084464 5.744420 36.574007 0.764962 -2.559294 33.277132 0.329093 -1.721225 21.646913 -0.000002 0.000000 0.000001 0.405047 -4.420298 40.582191 2.209622 -3.963368 58.266889 1.415845 -3.345893 45.862617 0.000003 0.000002 -0.000004 -0.735112 -3.992766 52.657586 2.664071 -4.209966 64.637024 1.852035 -3.719070 52.932959 0.000000 -0.000001 -0.000003 -1.766387 -4.907433 70.104590 2.285763 -4.009345 59.362076 3.263977 -4.444341 72.575322 0.000002 -0.000004 0.000002 -94.349351 -5.841218 -1.290259 69.849380 -2.517783 0.701362 9.812586 -0.755218 -14.647532 -40.840440 0.000015 -0.000002 -0.000000 0.000001 0.000000 -78.738660 -3.321532 4.323562 76.686632 2.817149 -0.710731 -39.475775 14.036939 -17.263110 -4.101970 -0.000015 -0.000003 -0.000000 0.000002 0.000000 
79.358727 64.311981 -64.516876 279.754003 227.221092 -75.257982 43.510860 0.129389 -3.686352 10.117756 -0.146503 -0.726433 10.119265 -0.152831 -0.721981 -11.334209 -0.058521 0.653825 -40.256896 0.778020 -2.601454 -0.000001 -0.000000 0.000000 -3.394697 -1.144518 1.418497 -74.649084 -56.994148 -77.131762 -0.000063 -105.053282 -0.000087 11.807783 -14.319146 27.590676 -92.878620 47.782139 -13.555363 7.081322 -16.739545 39.160514 -17.733703 13.560944 24.041091 -0.000000 0.000001 -0.000001 3.228728 11.527648 -23.108664 0.000416 0.069596 -0.679133 0.710808 2.798902 -28.494368 -0.000002 -0.000000 -0.000001 0.553074 5.038228 -13.940916 0.133447 1.244579 -12.239799 0.122499 1.193004 -11.725059 -0.000001 -0.000001 0.000003 0.101593 0.785171 1.356023 0.140454 1.276405 -12.557933 0.140556 1.276883 -12.562725 -0.000001 -0.000001 0.000004 5.842418 -7.383404 7.863171 0.031969 0.611910 -5.982257 0.136423 1.258255 -12.376515 -0.000001 -0.000003 0.000001 -4.221033 -10.269628 -6.638104 -94.999640 58.563845 90.337673 0.000029 59.477458 -0.000029 0.188277 -4.973386 -5.833081 -90.391693 -42.534354 10.476614 -17.932317 -29.430691 -41.765500 -16.872029 0.704201 -20.454041 -0.000000 -0.000002 0.000001 1.484491 5.033969 40.593631 0.902097 -2.756750 36.234119 0.375889 -1.834671 23.154584 -0.000005 0.000000 0.000002 0.720912 -4.894289 45.454458 2.610689 -4.184332 63.908017 1.706709 -3.604931 50.658004 0.000001 -0.000001 -0.000006 -0.878812 -4.320420 58.436052 3.210075 -4.427104 71.878554 2.287310 -4.010246 59.384226 0.000001 0.000004 -0.000005 -2.836724 -5.364773 77.264527 2.755008 -4.251775 65.869675 3.852911 -4.587351 80.044681 0.000002 -0.000001 -0.000001 -101.193098 -0.346794 -9.335864 77.955449 1.795326 3.448196 11.023823 -3.050380 0.280081 -38.655421 0.000005 -0.000002 0.000000 -0.000000 -0.000000 -72.558281 -6.118658 8.280637 76.454324 1.177419 -1.085729 -38.021617 17.669640 -13.134446 -10.193811 0.000034 0.000001 -0.000000 -0.000001 0.000000 
78.623260 63.785439 -63.839424 309.939723 224.609623 -46.858291 46.706811 0.009586 -4.962737 11.769650 -0.221906 -0.591001 11.773102 -0.321860 -0.531354 -12.859478 -0.324282 0.214918 -47.563955 -2.905304 -1.572159 0.000001 -0.000001 0.000001 -4.546826 10.510763 3.166423 -90.583007 -64.205315 -90.234073 -0.000070 -107.123731 -0.000106 18.974330 -17.742642 33.189310 -93.055645 47.542017 -12.869978 6.261426 -16.036002 37.984816 -17.702809 12.740054 23.790807 0.000000 0.000002 0.000001 3.184466 11.214241 -23.594977 0.002598 0.174774 -1.705736 0.720587 2.816822 -28.694123 0.000002 0.000000 -0.000006 0.585226 5.065352 -15.049955 0.160376 1.362780 -13.423226 0.142212 1.284265 -12.636592 -0.000000 -0.000002 -0.000000 0.052894 1.061808 -0.550757 0.165335 1.383437 -13.630918 0.157973 1.352695 -13.322174 -0.000002 -0.000001 0.000009 5.581369 -6.993308 5.493786 0.040613 0.689385 -6.743126 0.139835 1.273627 -12.530076 -0.000000 -0.000000 -0.000001 -5.044808 -16.061965 -2.247414 -102.935425 60.772947 101.677714 0.000104 74.597209 -0.000094 1.594020 -15.758933 6.699621 -89.774634 -42.979153 10.544169 -19.044990 -31.202497 -42.524447 -16.855647 1.093971 -19.810865 -0.000000 -0.000001 0.000001 0.998766 4.612237 43.274091 0.998836 -2.883919 38.199766 0.408658 -1.909467 24.158116 0.000000 -0.000003 -0.000001 0.933162 -5.167191 48.739417 2.890107 -4.309586 67.679620 1.915042 -3.765736 53.898273 0.000003 0.000001 -0.000002 -1.066427 -4.518226 62.339710 3.583195 -4.531910 76.653000 2.597666 -4.177934 63.729264 0.000002 0.000003 -0.000005 -3.874859 -5.804396 82.060311 2.997062 -4.351846 69.095894 4.202317 -4.634966 84.389050 -0.000000 -0.000002 0.000002 -101.850435 3.504191 -11.450497 80.014758 3.566841 4.063103 22.685338 -3.430609 5.256034 -31.991360 -0.575706 5.343832 -0.000000 0.000001 -0.000000 -65.110479 -8.978944 11.000840 76.952798 3.066256 -1.044792 -34.433507 17.926733 -12.148519 -15.926669 0.000008 0.000004 -0.000000 0.000000 0.000000 
77.943527 63.750084 -63.665337 334.401608 213.392376 -25.617388 51.754898 0.318621 -6.089933 13.085052 -0.270791 -0.279645 13.089452 -0.499153 -0.143366 -13.591427 -0.578014 -0.248355 -52.981610 -6.108294 -0.639935 -0.000002 -0.000001 0.000001 -5.107934 17.368934 4.792260 -106.938113 -68.131328 -102.795433 -0.000111 -109.645894 -0.000153 14.508324 -16.204113 30.340079 -93.124917 47.455919 -12.593379 5.599943 -15.450161 37.011299 -17.687869 12.168090 23.625114 0.000001 -0.000006 -0.000001 3.090869 10.821078 -24.081119 0.005889 0.262881 -2.566072 0.729954 2.833822 -28.883804 0.000000 0.000001 0.000001 0.565023 4.924343 -16.028654 0.183348 1.455720 -14.358087 0.158447 1.354637 -13.341691 0.000001 -0.000005 0.000003 0.014896 1.106662 -2.134552 0.186398 1.467472 -14.476717 0.172178 1.411283 -13.910940 -0.000002 0.000000 0.000004 5.368518 -6.860014 3.584541 0.045852 0.732269 -7.164934 0.142729 1.286652 -12.660383 0.000000 -0.000000 -0.000001 -4.365005 -17.171328 -9.466609 -104.289113 57.967583 97.980068 0.000975 86.409864 -0.000952 -3.733900 -19.421650 -2.650780 -89.066493 -43.348455 10.785616 -19.469454 -31.838807 -42.679550 -16.843318 1.232729 -19.402626 -0.000000 0.000000 0.000001 0.611901 4.581914 44.413189 1.038327 -2.933396 38.978288 0.419442 -1.933297 24.479377 -0.000002 -0.000002 0.000003 0.982957 -5.240613 50.160377 3.010173 -4.356813 69.268370 2.005351 -3.829818 55.261681 0.000004 -0.000003 -0.000001 -1.328427 -4.529408 64.065610 3.737094 -4.565579 78.593498 2.732364 -4.241584 65.563635 -0.000005 -0.000000 -0.000003 -4.916687 -6.004672 84.196063 2.954282 -4.335311 68.531010 4.251504 -4.639509 84.997476 -0.000000 -0.000002 -0.000001 -99.985288 3.713453 -7.594386 80.746209 -0.245999 2.547109 34.428303 -2.744366 -5.483582 -26.552243 -5.542827 18.042923 -0.000001 -0.000001 -0.000000 -54.120005 -9.872077 11.432887 77.652721 1.854054 -0.571201 -34.460917 14.886049 -7.949575 -18.779501 0.000022 0.000001 0.000000 0.000001 -0.000000 
